<svg xmlns="http://www.w3.org/2000/svg" xmlns:xlink="http://www.w3.org/1999/xlink" viewBox="0 0 80 80" version="1.1">
<g id="surface1">
<path style=" " d="M 29.847656 12 L 9.976563 68 L 21.886719 68 L 26.523438 54 L 44.949219 54 L 49.515625 68 L 62.019531 68 L 42.113281 12 Z M 31.261719 14 L 40.703125 14 L 59.1875 66 L 50.964844 66 L 46.402344 52 L 25.078125 52 L 20.4375 66 L 12.8125 66 Z M 34.730469 22.292969 L 26.671875 47 L 44.800781 47 L 36.820313 22.292969 Z M 61 25 L 61 31 L 55 31 L 55 37 L 61 37 L 61 43 L 67 43 L 67 37 L 73 37 L 73 31 L 67 31 L 67 25 Z M 35.769531 25.550781 L 42.054688 45 L 29.425781 45 Z M 63 27 L 65 27 L 65 33 L 71 33 L 71 35 L 65 35 L 65 41 L 63 41 L 63 35 L 57 35 L 57 33 L 63 33 Z M 28 57 C 27.449219 57 27 57.449219 27 58 C 27 58.550781 27.449219 59 28 59 C 28.550781 59 29 58.550781 29 58 C 29 57.449219 28.550781 57 28 57 Z M 32 57 C 31.449219 57 31 57.449219 31 58 C 31 58.550781 31.449219 59 32 59 C 32.550781 59 33 58.550781 33 58 C 33 57.449219 32.550781 57 32 57 Z M 36 57 C 35.449219 57 35 57.449219 35 58 C 35 58.550781 35.449219 59 36 59 C 36.550781 59 37 58.550781 37 58 C 37 57.449219 36.550781 57 36 57 Z M 40 57 C 39.449219 57 39 57.449219 39 58 C 39 58.550781 39.449219 59 40 59 C 40.550781 59 41 58.550781 41 58 C 41 57.449219 40.550781 57 40 57 Z M 44 57 C 43.449219 57 43 57.449219 43 58 C 43 58.550781 43.449219 59 44 59 C 44.550781 59 45 58.550781 45 58 C 45 57.449219 44.550781 57 44 57 Z "></path>
</g>
</svg>